<svg width="13" height="17" viewBox="0 0 13 17" fill="none" xmlns="http://www.w3.org/2000/svg">
<path d="M6.5 0C3.15625 0 0.5 2.71875 0.5 6C0.5 8.25 1.21875 8.9375 5.21875 15.3125C5.8125 16.25 7.15625 16.25 7.75 15.3125C11.75 8.9375 12.5 8.25 12.5 6C12.5 2.6875 9.78125 0 6.5 0ZM6.5 14.5C2.5 8.125 2 7.71875 2 6C2 3.53125 4 1.5 6.5 1.5C8.96875 1.5 11 3.53125 11 6C11 7.71875 10.5 8.0625 6.5 14.5ZM4 6C4 7.40625 5.09375 8.5 6.5 8.5C7.875 8.5 9 7.40625 9 6C9 4.625 7.875 3.5 6.5 3.5C5.09375 3.5 4 4.625 4 6Z" fill="#4BB45E"/>
</svg>
