<svg width="146" height="34" viewBox="0 0 146 34" fill="none" xmlns="http://www.w3.org/2000/svg">
<rect x="1" y="1" width="144" height="32" rx="16" fill="#4BB45E"/>
<rect x="1" y="1" width="144" height="32" rx="16" stroke="white" stroke-width="2"/>
<path d="M23.875 12.1875H22C22 15.8203 24.9297 18.75 28.5625 18.75V22.9688C28.5625 23.2324 28.7676 23.4375 29.0312 23.4375H29.9688C30.2031 23.4375 30.4375 23.2324 30.4375 22.9688V18.75C30.4375 15.1465 27.4785 12.1875 23.875 12.1875ZM35.125 10.3125C32.6348 10.3125 30.4961 11.6895 29.3828 13.7109C30.2031 14.5898 30.7891 15.6738 31.1113 16.8457C34.4219 16.5234 37 13.7109 37 10.3125H35.125Z" fill="white"/>
<g filter="url(#filter0_d_5426_243)">
<path d="M46.53 22C46.43 22 46.345 21.97 46.275 21.91C46.205 21.84 46.17 21.75 46.17 21.64V11.875C46.17 11.765 46.205 11.675 46.275 11.605C46.345 11.535 46.43 11.5 46.53 11.5H47.895C48.005 11.5 48.09 11.535 48.15 11.605C48.22 11.675 48.255 11.765 48.255 11.875V15.745H52.68V11.875C52.68 11.765 52.715 11.675 52.785 11.605C52.855 11.535 52.94 11.5 53.04 11.5H54.39C54.5 11.5 54.59 11.535 54.66 11.605C54.73 11.675 54.765 11.765 54.765 11.875V21.64C54.765 21.74 54.73 21.825 54.66 21.895C54.59 21.965 54.5 22 54.39 22H53.04C52.94 22 52.855 21.965 52.785 21.895C52.715 21.825 52.68 21.74 52.68 21.64V17.62H48.255V21.64C48.255 21.74 48.22 21.825 48.15 21.895C48.09 21.965 48.005 22 47.895 22H46.53ZM61.8827 22.15C60.9927 22.15 60.2277 22.005 59.5877 21.715C58.9477 21.415 58.4477 20.96 58.0877 20.35C57.7277 19.73 57.5327 18.96 57.5027 18.04C57.4927 17.61 57.4877 17.185 57.4877 16.765C57.4877 16.345 57.4927 15.915 57.5027 15.475C57.5327 14.565 57.7327 13.805 58.1027 13.195C58.4727 12.585 58.9777 12.125 59.6177 11.815C60.2677 11.505 61.0227 11.35 61.8827 11.35C62.7427 11.35 63.4977 11.505 64.1477 11.815C64.7977 12.125 65.3077 12.585 65.6777 13.195C66.0477 13.805 66.2477 14.565 66.2777 15.475C66.2977 15.915 66.3077 16.345 66.3077 16.765C66.3077 17.185 66.2977 17.61 66.2777 18.04C66.2477 18.96 66.0527 19.73 65.6927 20.35C65.3327 20.96 64.8277 21.415 64.1777 21.715C63.5377 22.005 62.7727 22.15 61.8827 22.15ZM61.8827 20.425C62.5327 20.425 63.0627 20.235 63.4727 19.855C63.8827 19.465 64.1027 18.835 64.1327 17.965C64.1527 17.525 64.1627 17.12 64.1627 16.75C64.1627 16.37 64.1527 15.965 64.1327 15.535C64.1127 14.955 64.0027 14.485 63.8027 14.125C63.6127 13.755 63.3527 13.49 63.0227 13.33C62.6927 13.16 62.3127 13.075 61.8827 13.075C61.4627 13.075 61.0877 13.16 60.7577 13.33C60.4277 13.49 60.1627 13.755 59.9627 14.125C59.7727 14.485 59.6677 14.955 59.6477 15.535C59.6377 15.965 59.6327 16.37 59.6327 16.75C59.6327 17.12 59.6377 17.525 59.6477 17.965C59.6777 18.835 59.8977 19.465 60.3077 19.855C60.7177 20.235 61.2427 20.425 61.8827 20.425ZM69.3874 22C69.2874 22 69.2024 21.965 69.1324 21.895C69.0624 21.825 69.0274 21.74 69.0274 21.64V11.875C69.0274 11.765 69.0624 11.675 69.1324 11.605C69.2024 11.535 69.2874 11.5 69.3874 11.5H73.7374C74.5474 11.5 75.2074 11.625 75.7174 11.875C76.2274 12.115 76.6024 12.45 76.8424 12.88C77.0924 13.31 77.2174 13.81 77.2174 14.38C77.2174 14.76 77.1474 15.095 77.0074 15.385C76.8774 15.665 76.7124 15.895 76.5124 16.075C76.3224 16.255 76.1324 16.395 75.9424 16.495C76.3324 16.675 76.6774 16.975 76.9774 17.395C77.2774 17.815 77.4274 18.315 77.4274 18.895C77.4274 19.495 77.2924 20.03 77.0224 20.5C76.7524 20.97 76.3524 21.34 75.8224 21.61C75.2924 21.87 74.6374 22 73.8574 22H69.3874ZM71.1124 20.41H73.6174C74.1574 20.41 74.5674 20.265 74.8474 19.975C75.1274 19.675 75.2674 19.315 75.2674 18.895C75.2674 18.455 75.1224 18.09 74.8324 17.8C74.5524 17.51 74.1474 17.365 73.6174 17.365H71.1124V20.41ZM71.1124 15.805H73.4674C73.9974 15.805 74.3924 15.68 74.6524 15.43C74.9224 15.17 75.0574 14.835 75.0574 14.425C75.0574 14.005 74.9224 13.68 74.6524 13.45C74.3924 13.21 73.9974 13.09 73.4674 13.09H71.1124V15.805ZM80.4206 22C80.3206 22 80.2356 21.965 80.1656 21.895C80.0956 21.825 80.0606 21.735 80.0606 21.625V11.875C80.0606 11.765 80.0956 11.675 80.1656 11.605C80.2356 11.535 80.3256 11.5 80.4356 11.5H81.7856C81.8956 11.5 81.9806 11.535 82.0406 11.605C82.1106 11.675 82.1456 11.765 82.1456 11.875V18.76L87.0806 11.74C87.1206 11.69 87.1756 11.64 87.2456 11.59C87.3156 11.53 87.4056 11.5 87.5156 11.5H88.7606C88.8606 11.5 88.9456 11.535 89.0156 11.605C89.0856 11.675 89.1206 11.765 89.1206 11.875V21.64C89.1206 21.74 89.0856 21.825 89.0156 21.895C88.9456 21.965 88.8606 22 88.7606 22H87.4106C87.3006 22 87.2106 21.965 87.1406 21.895C87.0706 21.825 87.0356 21.74 87.0356 21.64V14.89L82.1156 21.76C82.0856 21.8 82.0356 21.85 81.9656 21.91C81.8956 21.97 81.8006 22 81.6806 22H80.4206ZM92.5671 22C92.4671 22 92.3821 21.97 92.3121 21.91C92.2421 21.84 92.2071 21.75 92.2071 21.64V11.875C92.2071 11.765 92.2421 11.675 92.3121 11.605C92.3821 11.535 92.4671 11.5 92.5671 11.5H93.9321C94.0421 11.5 94.1271 11.535 94.1871 11.605C94.2571 11.675 94.2921 11.765 94.2921 11.875V15.745H98.7171V11.875C98.7171 11.765 98.7521 11.675 98.8221 11.605C98.8921 11.535 98.9771 11.5 99.0771 11.5H100.427C100.537 11.5 100.627 11.535 100.697 11.605C100.767 11.675 100.802 11.765 100.802 11.875V21.64C100.802 21.74 100.767 21.825 100.697 21.895C100.627 21.965 100.537 22 100.427 22H99.0771C98.9771 22 98.8921 21.965 98.8221 21.895C98.7521 21.825 98.7171 21.74 98.7171 21.64V17.62H94.2921V21.64C94.2921 21.74 94.2571 21.825 94.1871 21.895C94.1271 21.965 94.0421 22 93.9321 22H92.5671ZM104.245 22C104.145 22 104.06 21.97 103.99 21.91C103.92 21.84 103.885 21.75 103.885 21.64V11.875C103.885 11.765 103.92 11.675 103.99 11.605C104.06 11.535 104.145 11.5 104.245 11.5H105.61C105.72 11.5 105.805 11.535 105.865 11.605C105.935 11.675 105.97 11.765 105.97 11.875V15.745H107.275L109.72 11.77C109.77 11.69 109.835 11.625 109.915 11.575C110.005 11.525 110.12 11.5 110.26 11.5H111.745C111.845 11.5 111.92 11.53 111.97 11.59C112.03 11.65 112.06 11.725 112.06 11.815C112.06 11.865 112.04 11.925 112 11.995L109.165 16.57L112.27 21.49C112.3 21.52 112.315 21.575 112.315 21.655C112.315 21.745 112.28 21.825 112.21 21.895C112.15 21.965 112.07 22 111.97 22H110.425C110.295 22 110.195 21.97 110.125 21.91C110.065 21.85 110.015 21.795 109.975 21.745L107.35 17.62H105.97V21.64C105.97 21.74 105.935 21.825 105.865 21.895C105.805 21.965 105.72 22 105.61 22H104.245ZM114.039 22C113.959 22 113.884 21.97 113.814 21.91C113.754 21.85 113.724 21.775 113.724 21.685C113.724 21.645 113.734 21.6 113.754 21.55L117.369 11.875C117.399 11.775 117.454 11.69 117.534 11.62C117.624 11.54 117.744 11.5 117.894 11.5H119.529C119.679 11.5 119.794 11.54 119.874 11.62C119.954 11.69 120.014 11.775 120.054 11.875L123.669 21.55C123.679 21.6 123.684 21.645 123.684 21.685C123.684 21.775 123.654 21.85 123.594 21.91C123.534 21.97 123.464 22 123.384 22H122.079C121.939 22 121.834 21.97 121.764 21.91C121.704 21.84 121.664 21.775 121.644 21.715L120.939 19.885H116.484L115.779 21.715C115.759 21.775 115.714 21.84 115.644 21.91C115.584 21.97 115.484 22 115.344 22H114.039ZM117.009 18.16H120.414L118.704 13.525L117.009 18.16Z" fill="white"/>
</g>
<defs>
<filter id="filter0_d_5426_243" x="42.17" y="11.35" width="85.5137" height="18.8" filterUnits="userSpaceOnUse" color-interpolation-filters="sRGB">
<feFlood flood-opacity="0" result="BackgroundImageFix"/>
<feColorMatrix in="SourceAlpha" type="matrix" values="0 0 0 0 0 0 0 0 0 0 0 0 0 0 0 0 0 0 127 0" result="hardAlpha"/>
<feOffset dy="4"/>
<feGaussianBlur stdDeviation="2"/>
<feComposite in2="hardAlpha" operator="out"/>
<feColorMatrix type="matrix" values="0 0 0 0 0 0 0 0 0 0 0 0 0 0 0 0 0 0 0.25 0"/>
<feBlend mode="normal" in2="BackgroundImageFix" result="effect1_dropShadow_5426_243"/>
<feBlend mode="normal" in="SourceGraphic" in2="effect1_dropShadow_5426_243" result="shape"/>
</filter>
</defs>
</svg>
