<svg width="121" height="34" viewBox="0 0 121 34" fill="none" xmlns="http://www.w3.org/2000/svg">
<rect x="1" y="1" width="119" height="32" rx="16" fill="#FF5555"/>
<rect x="1" y="1" width="119" height="32" rx="16" stroke="white" stroke-width="2"/>
<path d="M24.8418 20.0098C24.5781 19.7461 24.6953 19.834 24.1094 19.6582C23.8164 19.5996 23.582 19.4531 23.3477 19.2773L22.0293 22.5293C21.8828 22.8516 22.1465 23.2031 22.4688 23.1738L24.0215 23.1152L25.0762 24.2285C25.3105 24.4922 25.7207 24.4043 25.8379 24.1113L27.3906 20.3613C27.0684 20.5371 26.7168 20.625 26.3359 20.625C25.7793 20.625 25.2227 20.4199 24.8418 20.0098ZM33.1914 22.5293L31.873 19.2773C31.6387 19.4531 31.4043 19.5996 31.1406 19.6582C30.4961 19.834 30.6426 19.7461 30.3789 20.0098C29.998 20.4199 29.4414 20.625 28.8848 20.625C28.5039 20.625 28.1523 20.5371 27.8301 20.3613L29.3828 24.1113C29.5 24.4043 29.9102 24.4922 30.1445 24.2285L31.1992 23.1152L32.752 23.1738C33.0742 23.2031 33.3379 22.8516 33.1914 22.5293ZM29.7051 19.3359C30.1445 18.8965 30.2031 18.9258 30.8184 18.75C31.2285 18.6621 31.5508 18.3398 31.668 17.9004C31.873 17.0801 31.8145 17.168 32.4297 16.582C32.7227 16.2598 32.8398 15.8203 32.7227 15.4102C32.5176 14.5898 32.5176 14.707 32.7227 13.8574C32.8398 13.4473 32.7227 13.0078 32.4297 12.7148C31.8145 12.0996 31.873 12.1875 31.668 11.3672C31.5508 10.957 31.2285 10.6348 30.8184 10.5176C29.998 10.2832 30.1152 10.3418 29.5 9.72656C29.207 9.43359 28.7676 9.31641 28.3574 9.43359C27.5664 9.63867 27.6543 9.63867 26.8633 9.43359C26.4531 9.31641 26.0137 9.43359 25.7207 9.72656C25.1055 10.3418 25.2227 10.2832 24.4023 10.5176C23.9922 10.6348 23.6699 10.957 23.5527 11.3672C23.3477 12.1875 23.4062 12.0996 22.791 12.7148C22.498 13.0078 22.3809 13.4473 22.498 13.8574C22.7031 14.707 22.7031 14.5898 22.498 15.4102C22.3809 15.8203 22.498 16.2598 22.791 16.582C23.4062 17.168 23.3477 17.0801 23.5527 17.9004C23.6699 18.3398 23.9922 18.6621 24.4023 18.75C25.0469 18.9258 25.1055 18.8965 25.5449 19.3359C25.9258 19.7461 26.5117 19.8047 26.9805 19.5117C27.1562 19.3945 27.3906 19.3359 27.5957 19.3359C27.8301 19.3359 28.0645 19.3945 28.2402 19.5117C28.709 19.8047 29.2949 19.7461 29.7051 19.3359ZM24.8418 14.5312C24.8418 12.9785 26.0723 11.7188 27.625 11.7188C29.1484 11.7188 30.3789 12.9785 30.3789 14.5312C30.3789 16.084 29.1484 17.3438 27.625 17.3438C26.0723 17.3438 24.8418 16.084 24.8418 14.5312Z" fill="white"/>
<path d="M42.525 22C42.445 22 42.37 21.97 42.3 21.91C42.24 21.85 42.21 21.775 42.21 21.685C42.21 21.645 42.22 21.6 42.24 21.55L45.855 11.875C45.885 11.775 45.94 11.69 46.02 11.62C46.11 11.54 46.23 11.5 46.38 11.5H48.015C48.165 11.5 48.28 11.54 48.36 11.62C48.44 11.69 48.5 11.775 48.54 11.875L52.155 21.55C52.165 21.6 52.17 21.645 52.17 21.685C52.17 21.775 52.14 21.85 52.08 21.91C52.02 21.97 51.95 22 51.87 22H50.565C50.425 22 50.32 21.97 50.25 21.91C50.19 21.84 50.15 21.775 50.13 21.715L49.425 19.885H44.97L44.265 21.715C44.245 21.775 44.2 21.84 44.13 21.91C44.07 21.97 43.97 22 43.83 22H42.525ZM45.495 18.16H48.9L47.19 13.525L45.495 18.16ZM54.6804 22C54.5804 22 54.4954 21.97 54.4254 21.91C54.3554 21.84 54.3204 21.75 54.3204 21.64V11.875C54.3204 11.765 54.3554 11.675 54.4254 11.605C54.4954 11.535 54.5804 11.5 54.6804 11.5H56.0454C56.1554 11.5 56.2404 11.535 56.3004 11.605C56.3704 11.675 56.4054 11.765 56.4054 11.875V15.745H57.7104L60.1554 11.77C60.2054 11.69 60.2704 11.625 60.3504 11.575C60.4404 11.525 60.5554 11.5 60.6954 11.5H62.1804C62.2804 11.5 62.3554 11.53 62.4054 11.59C62.4654 11.65 62.4954 11.725 62.4954 11.815C62.4954 11.865 62.4754 11.925 62.4354 11.995L59.6004 16.57L62.7054 21.49C62.7354 21.52 62.7504 21.575 62.7504 21.655C62.7504 21.745 62.7154 21.825 62.6454 21.895C62.5854 21.965 62.5054 22 62.4054 22H60.8604C60.7304 22 60.6304 21.97 60.5604 21.91C60.5004 21.85 60.4504 21.795 60.4104 21.745L57.7854 17.62H56.4054V21.64C56.4054 21.74 56.3704 21.825 56.3004 21.895C56.2404 21.965 56.1554 22 56.0454 22H54.6804ZM73.0842 24.1C72.9742 24.1 72.8842 24.065 72.8142 23.995C72.7542 23.925 72.7242 23.84 72.7242 23.74V22H65.4792C65.3792 22 65.2942 21.965 65.2242 21.895C65.1542 21.825 65.1192 21.735 65.1192 21.625V11.86C65.1192 11.75 65.1542 11.665 65.2242 11.605C65.2942 11.535 65.3792 11.5 65.4792 11.5H66.8442C66.9542 11.5 67.0392 11.535 67.0992 11.605C67.1692 11.675 67.2042 11.76 67.2042 11.86V20.125H71.6292V11.86C71.6292 11.76 71.6642 11.675 71.7342 11.605C71.8042 11.535 71.8892 11.5 71.9892 11.5H73.3392C73.4492 11.5 73.5392 11.535 73.6092 11.605C73.6792 11.675 73.7142 11.76 73.7142 11.86V20.125H74.4342C74.5442 20.125 74.6342 20.16 74.7042 20.23C74.7742 20.3 74.8092 20.385 74.8092 20.485V23.74C74.8092 23.84 74.7742 23.925 74.7042 23.995C74.6342 24.065 74.5442 24.1 74.4342 24.1H73.0842ZM77.5818 22C77.4818 22 77.3968 21.965 77.3268 21.895C77.2568 21.825 77.2218 21.735 77.2218 21.625V11.875C77.2218 11.765 77.2568 11.675 77.3268 11.605C77.3968 11.535 77.4868 11.5 77.5968 11.5H78.9468C79.0568 11.5 79.1418 11.535 79.2018 11.605C79.2718 11.675 79.3068 11.765 79.3068 11.875V18.76L84.2418 11.74C84.2818 11.69 84.3368 11.64 84.4068 11.59C84.4768 11.53 84.5668 11.5 84.6768 11.5H85.9218C86.0218 11.5 86.1068 11.535 86.1768 11.605C86.2468 11.675 86.2818 11.765 86.2818 11.875V21.64C86.2818 21.74 86.2468 21.825 86.1768 21.895C86.1068 21.965 86.0218 22 85.9218 22H84.5718C84.4618 22 84.3718 21.965 84.3018 21.895C84.2318 21.825 84.1968 21.74 84.1968 21.64V14.89L79.2768 21.76C79.2468 21.8 79.1968 21.85 79.1268 21.91C79.0568 21.97 78.9618 22 78.8418 22H77.5818ZM95.5182 22C95.4182 22 95.3282 21.965 95.2482 21.895C95.1782 21.825 95.1432 21.74 95.1432 21.64V18.205H92.9382C92.2382 18.205 91.6232 18.075 91.0932 17.815C90.5632 17.545 90.1532 17.165 89.8632 16.675C89.5732 16.175 89.4282 15.58 89.4282 14.89C89.4282 14.27 89.5682 13.705 89.8482 13.195C90.1282 12.685 90.5432 12.275 91.0932 11.965C91.6532 11.655 92.3432 11.5 93.1632 11.5H96.8682C96.9782 11.5 97.0632 11.535 97.1232 11.605C97.1932 11.675 97.2282 11.76 97.2282 11.86V21.64C97.2282 21.74 97.1932 21.825 97.1232 21.895C97.0632 21.965 96.9782 22 96.8682 22H95.5182ZM89.5182 22C89.4382 22 89.3682 21.97 89.3082 21.91C89.2482 21.85 89.2182 21.775 89.2182 21.685C89.2182 21.635 89.2332 21.58 89.2632 21.52L91.7382 17.485L93.7182 17.815L91.4832 21.595C91.4232 21.695 91.3482 21.79 91.2582 21.88C91.1782 21.96 91.0532 22 90.8832 22H89.5182ZM93.2532 16.51H95.1432V13.165H93.2532C92.7232 13.165 92.3082 13.33 92.0082 13.66C91.7182 13.98 91.5732 14.395 91.5732 14.905C91.5732 15.425 91.7132 15.825 91.9932 16.105C92.2732 16.375 92.6932 16.51 93.2532 16.51Z" fill="white"/>
</svg>
