<svg width="136" height="34" viewBox="0 0 136 34" fill="none" xmlns="http://www.w3.org/2000/svg">
<rect x="1.5" y="1" width="133" height="32" rx="16" fill="#55B8FF"/>
<rect x="1.5" y="1" width="133" height="32" rx="16" stroke="white" stroke-width="2"/>
<path d="M28.5059 10.0488C28.2715 9.19922 27.041 9.14062 26.7773 10.0488C25.4297 14.6484 22.5 15.9082 22.5 19.1602C22.5 22.0605 24.7852 24.375 27.6562 24.375C30.498 24.375 32.8125 22.0605 32.8125 19.1602C32.8125 15.9082 29.8828 14.6777 28.5059 10.0488ZM27.6562 22.5C25.8398 22.5 24.375 21.0352 24.375 19.2188C24.375 18.9844 24.5801 18.75 24.8438 18.75C25.0781 18.75 25.3125 18.9844 25.3125 19.2188C25.3125 20.5371 26.3379 21.5625 27.6562 21.5625C27.8906 21.5625 28.125 21.7969 28.125 22.0312C28.125 22.2949 27.8906 22.5 27.6562 22.5Z" fill="white"/>
<path d="M46.72 22.15C45.79 22.15 45 21.99 44.35 21.67C43.71 21.34 43.22 20.875 42.88 20.275C42.54 19.665 42.35 18.935 42.31 18.085C42.3 17.675 42.295 17.235 42.295 16.765C42.295 16.295 42.3 15.845 42.31 15.415C42.35 14.575 42.54 13.85 42.88 13.24C43.23 12.63 43.725 12.165 44.365 11.845C45.015 11.515 45.8 11.35 46.72 11.35C47.4 11.35 48.01 11.44 48.55 11.62C49.09 11.8 49.55 12.05 49.93 12.37C50.31 12.68 50.605 13.045 50.815 13.465C51.025 13.885 51.135 14.34 51.145 14.83C51.155 14.92 51.125 14.995 51.055 15.055C50.995 15.115 50.92 15.145 50.83 15.145H49.405C49.295 15.145 49.205 15.12 49.135 15.07C49.065 15.01 49.015 14.915 48.985 14.785C48.825 14.125 48.55 13.675 48.16 13.435C47.77 13.195 47.285 13.075 46.705 13.075C46.035 13.075 45.5 13.265 45.1 13.645C44.7 14.015 44.485 14.63 44.455 15.49C44.425 16.31 44.425 17.15 44.455 18.01C44.485 18.87 44.7 19.49 45.1 19.87C45.5 20.24 46.035 20.425 46.705 20.425C47.285 20.425 47.77 20.305 48.16 20.065C48.55 19.815 48.825 19.365 48.985 18.715C49.015 18.575 49.065 18.48 49.135 18.43C49.205 18.38 49.295 18.355 49.405 18.355H50.83C50.92 18.355 50.995 18.385 51.055 18.445C51.125 18.505 51.155 18.58 51.145 18.67C51.135 19.16 51.025 19.615 50.815 20.035C50.605 20.455 50.31 20.825 49.93 21.145C49.55 21.455 49.09 21.7 48.55 21.88C48.01 22.06 47.4 22.15 46.72 22.15ZM58.2116 22C58.1116 22 58.0266 21.965 57.9566 21.895C57.8866 21.825 57.8516 21.74 57.8516 21.64V11.875C57.8516 11.765 57.8866 11.675 57.9566 11.605C58.0266 11.535 58.1116 11.5 58.2116 11.5H62.5616C63.3716 11.5 64.0316 11.625 64.5416 11.875C65.0516 12.115 65.4266 12.45 65.6666 12.88C65.9166 13.31 66.0416 13.81 66.0416 14.38C66.0416 14.76 65.9716 15.095 65.8316 15.385C65.7016 15.665 65.5366 15.895 65.3366 16.075C65.1466 16.255 64.9566 16.395 64.7666 16.495C65.1566 16.675 65.5016 16.975 65.8016 17.395C66.1016 17.815 66.2516 18.315 66.2516 18.895C66.2516 19.495 66.1166 20.03 65.8466 20.5C65.5766 20.97 65.1766 21.34 64.6466 21.61C64.1166 21.87 63.4616 22 62.6816 22H58.2116ZM59.9366 20.41H62.4416C62.9816 20.41 63.3916 20.265 63.6716 19.975C63.9516 19.675 64.0916 19.315 64.0916 18.895C64.0916 18.455 63.9466 18.09 63.6566 17.8C63.3766 17.51 62.9716 17.365 62.4416 17.365H59.9366V20.41ZM59.9366 15.805H62.2916C62.8216 15.805 63.2166 15.68 63.4766 15.43C63.7466 15.17 63.8816 14.835 63.8816 14.425C63.8816 14.005 63.7466 13.68 63.4766 13.45C63.2166 13.21 62.8216 13.09 62.2916 13.09H59.9366V15.805ZM72.9198 22.15C72.0298 22.15 71.2648 22.005 70.6248 21.715C69.9848 21.415 69.4848 20.96 69.1248 20.35C68.7648 19.73 68.5698 18.96 68.5398 18.04C68.5298 17.61 68.5248 17.185 68.5248 16.765C68.5248 16.345 68.5298 15.915 68.5398 15.475C68.5698 14.565 68.7698 13.805 69.1398 13.195C69.5098 12.585 70.0148 12.125 70.6548 11.815C71.3048 11.505 72.0598 11.35 72.9198 11.35C73.7798 11.35 74.5348 11.505 75.1848 11.815C75.8348 12.125 76.3448 12.585 76.7148 13.195C77.0848 13.805 77.2848 14.565 77.3148 15.475C77.3348 15.915 77.3448 16.345 77.3448 16.765C77.3448 17.185 77.3348 17.61 77.3148 18.04C77.2848 18.96 77.0898 19.73 76.7298 20.35C76.3698 20.96 75.8648 21.415 75.2148 21.715C74.5748 22.005 73.8098 22.15 72.9198 22.15ZM72.9198 20.425C73.5698 20.425 74.0998 20.235 74.5098 19.855C74.9198 19.465 75.1398 18.835 75.1698 17.965C75.1898 17.525 75.1998 17.12 75.1998 16.75C75.1998 16.37 75.1898 15.965 75.1698 15.535C75.1498 14.955 75.0398 14.485 74.8398 14.125C74.6498 13.755 74.3898 13.49 74.0598 13.33C73.7298 13.16 73.3498 13.075 72.9198 13.075C72.4998 13.075 72.1248 13.16 71.7948 13.33C71.4648 13.49 71.1998 13.755 70.9998 14.125C70.8098 14.485 70.7048 14.955 70.6848 15.535C70.6748 15.965 70.6698 16.37 70.6698 16.75C70.6698 17.12 70.6748 17.525 70.6848 17.965C70.7148 18.835 70.9348 19.465 71.3448 19.855C71.7548 20.235 72.2798 20.425 72.9198 20.425ZM79.6445 24.085C79.5445 24.085 79.4595 24.05 79.3895 23.98C79.3195 23.92 79.2845 23.835 79.2845 23.725V20.485C79.2845 20.385 79.3195 20.3 79.3895 20.23C79.4595 20.16 79.5445 20.125 79.6445 20.125H79.9445C80.1845 20.125 80.3895 20.015 80.5595 19.795C80.7295 19.565 80.8695 19.235 80.9795 18.805C81.0895 18.365 81.1695 17.825 81.2195 17.185C81.2695 16.545 81.2945 15.815 81.2945 14.995V11.86C81.2945 11.76 81.3295 11.675 81.3995 11.605C81.4695 11.535 81.5595 11.5 81.6695 11.5H88.1045C88.2145 11.5 88.3045 11.535 88.3745 11.605C88.4445 11.675 88.4795 11.765 88.4795 11.875V20.125H89.1995C89.3095 20.125 89.3995 20.16 89.4695 20.23C89.5395 20.3 89.5745 20.385 89.5745 20.485V23.725C89.5745 23.835 89.5395 23.92 89.4695 23.98C89.3995 24.05 89.3095 24.085 89.1995 24.085H87.8495C87.7395 24.085 87.6495 24.05 87.5795 23.98C87.5195 23.92 87.4895 23.835 87.4895 23.725V22H81.3695V23.725C81.3695 23.835 81.3345 23.92 81.2645 23.98C81.1945 24.05 81.1045 24.085 80.9945 24.085H79.6445ZM82.4945 20.125H86.3945V13.375H83.3195V15.265C83.3195 16.505 83.2495 17.52 83.1095 18.31C82.9695 19.09 82.7645 19.695 82.4945 20.125ZM96.0263 22.15C95.1363 22.15 94.3713 22.005 93.7313 21.715C93.0913 21.415 92.5913 20.96 92.2313 20.35C91.8713 19.73 91.6763 18.96 91.6463 18.04C91.6363 17.61 91.6313 17.185 91.6313 16.765C91.6313 16.345 91.6363 15.915 91.6463 15.475C91.6763 14.565 91.8763 13.805 92.2463 13.195C92.6163 12.585 93.1213 12.125 93.7613 11.815C94.4113 11.505 95.1663 11.35 96.0263 11.35C96.8863 11.35 97.6413 11.505 98.2913 11.815C98.9413 12.125 99.4513 12.585 99.8213 13.195C100.191 13.805 100.391 14.565 100.421 15.475C100.441 15.915 100.451 16.345 100.451 16.765C100.451 17.185 100.441 17.61 100.421 18.04C100.391 18.96 100.196 19.73 99.8363 20.35C99.4763 20.96 98.9713 21.415 98.3213 21.715C97.6813 22.005 96.9163 22.15 96.0263 22.15ZM96.0263 20.425C96.6763 20.425 97.2063 20.235 97.6163 19.855C98.0263 19.465 98.2463 18.835 98.2763 17.965C98.2963 17.525 98.3063 17.12 98.3063 16.75C98.3063 16.37 98.2963 15.965 98.2763 15.535C98.2563 14.955 98.1463 14.485 97.9463 14.125C97.7563 13.755 97.4963 13.49 97.1663 13.33C96.8363 13.16 96.4563 13.075 96.0263 13.075C95.6063 13.075 95.2313 13.16 94.9013 13.33C94.5713 13.49 94.3063 13.755 94.1063 14.125C93.9163 14.485 93.8113 14.955 93.7913 15.535C93.7813 15.965 93.7763 16.37 93.7763 16.75C93.7763 17.12 93.7813 17.525 93.7913 17.965C93.8213 18.835 94.0413 19.465 94.4513 19.855C94.8613 20.235 95.3863 20.425 96.0263 20.425ZM103.531 22C103.431 22 103.346 21.965 103.276 21.895C103.206 21.825 103.171 21.735 103.171 21.625V11.875C103.171 11.765 103.206 11.675 103.276 11.605C103.346 11.535 103.436 11.5 103.546 11.5H104.896C105.006 11.5 105.091 11.535 105.151 11.605C105.221 11.675 105.256 11.765 105.256 11.875V18.76L110.191 11.74C110.231 11.69 110.286 11.64 110.356 11.59C110.426 11.53 110.516 11.5 110.626 11.5H111.871C111.971 11.5 112.056 11.535 112.126 11.605C112.196 11.675 112.231 11.765 112.231 11.875V21.64C112.231 21.74 112.196 21.825 112.126 21.895C112.056 21.965 111.971 22 111.871 22H110.521C110.411 22 110.321 21.965 110.251 21.895C110.181 21.825 110.146 21.74 110.146 21.64V14.89L105.226 21.76C105.196 21.8 105.146 21.85 105.076 21.91C105.006 21.97 104.911 22 104.791 22H103.531ZM107.716 10.9C107.096 10.9 106.601 10.805 106.231 10.615C105.871 10.425 105.611 10.18 105.451 9.88C105.291 9.57 105.211 9.24 105.211 8.89C105.211 8.81 105.236 8.745 105.286 8.695C105.336 8.635 105.406 8.605 105.496 8.605H106.366C106.456 8.605 106.526 8.635 106.576 8.695C106.626 8.745 106.651 8.81 106.651 8.89C106.651 9.03 106.676 9.165 106.726 9.295C106.786 9.425 106.891 9.535 107.041 9.625C107.201 9.705 107.421 9.745 107.701 9.745C108.001 9.745 108.226 9.705 108.376 9.625C108.526 9.535 108.626 9.425 108.676 9.295C108.736 9.165 108.766 9.03 108.766 8.89C108.766 8.81 108.791 8.745 108.841 8.695C108.891 8.635 108.961 8.605 109.051 8.605H109.921C110.011 8.605 110.081 8.635 110.131 8.695C110.181 8.745 110.206 8.81 110.206 8.89C110.206 9.24 110.126 9.57 109.966 9.88C109.806 10.18 109.546 10.425 109.186 10.615C108.826 10.805 108.336 10.9 107.716 10.9Z" fill="white"/>
</svg>
